<?xml version="1.0" encoding="utf-8"?>
<!DOCTYPE svg PUBLIC "-//W3C//DTD SVG 1.0//EN" "http://www.w3.org/TR/2001/REC-SVG-20010904/DTD/svg10.dtd">
<svg version="1.0" xmlns="http://www.w3.org/2000/svg" width="484px" height="488px" viewBox="0 0 484 488" preserveAspectRatio="xMidYMid meet">
 <g fill="#fcfbfc">
  <path d="M0 244 l0 -244 242 0 242 0 0 244 0 244 -242 0 -242 0 0 -244z m183.80 180.25 c1.50 -0.95 2.90 -2.30 3.55 -3.50 l1.05 -2 0.05 -61.30 c0.05 -52.65 -0.05 -61.50 -0.70 -62.75 -1.05 -2.15 -3.85 -4.65 -5.80 -5.20 -1.05 -0.30 -17.35 -0.50 -42.85 -0.50 -39.50 0 -41.20 0.05 -43 0.95 -2.25 1.15 -4.35 3.30 -5.05 5.20 -0.40 0.95 -0.55 20.50 -0.55 62.30 l0 60.90 1.15 2.15 c0.60 1.20 1.70 2.60 2.40 3.10 3.20 2.40 2.55 2.40 46.25 2.25 l41.05 -0.10 2.45 -1.50z m214.25 0.15 c1.45 -0.85 2.85 -2.20 3.65 -3.60 l1.30 -2.25 0 -61.30 c0 -56.60 -0.05 -61.40 -0.85 -62.65 -1.40 -2.30 -2.80 -3.65 -4.75 -4.65 -1.80 -0.90 -4.30 -0.95 -86.05 -0.95 l-84.20 0 -2.20 1.15 c-1.30 0.70 -2.85 2.10 -3.70 3.40 l-1.50 2.20 0 61.25 c0 61 0 61.25 1.05 63.20 1.25 2.45 4.05 4.75 6.30 5.30 0.90 0.25 39.25 0.35 85.15 0.35 l83.50 -0.10 2.30 -1.35z m-215.05 -166 c1.20 -0.65 2.90 -2 3.70 -3.05 l1.55 -1.95 0.15 -32.45 c0.10 -31.20 0.10 -32.50 -0.85 -34.30 -1.20 -2.40 -2.80 -3.90 -5.15 -4.90 -1.65 -0.65 -8.85 -0.75 -61.90 -0.75 -66.25 0 -61.95 -0.20 -65.40 3.15 -3.15 3 -3.15 3.25 -2.95 37.15 0.20 33.05 0.15 32.40 3.05 35.25 3.15 3.10 -1.30 2.95 65.05 2.95 l60.55 0 2.20 -1.10z m240.20 -0.05 c2.95 -1.65 4.70 -4.15 5.35 -7.50 0.35 -1.95 0.45 -13 0.35 -32.75 l-0.15 -29.85 -1.40 -2.10 c-0.75 -1.20 -2.30 -2.75 -3.45 -3.50 l-2.10 -1.40 -96.75 -0.15 c-108.05 -0.15 -99.30 -0.45 -102.75 3.40 -0.95 1.05 -2 2.85 -2.30 3.95 -0.35 1.35 -0.50 11.90 -0.40 32.90 0.15 28.95 0.20 31 1.05 32.60 1.15 2.10 3.15 4 5.10 4.85 1.25 0.55 18.90 0.65 98.50 0.65 l97 0.05 1.95 -1.15z m-128.70 -107.10 c32.85 -1.80 67.45 -16.60 87.30 -37.40 12.55 -13.10 17.05 -26.20 12.30 -35.85 -4.70 -9.45 -13.85 -15.20 -29.40 -18.35 -6.70 -1.35 -22.70 -1.20 -31.40 0.25 -19.30 3.30 -37.70 10.10 -53.55 19.80 -14.15 8.65 -26 20.40 -31 30.70 -1.40 2.90 -1.60 3.05 -3.25 3.10 -1.60 0 -1.85 -0.20 -2.85 -2.40 -2.95 -6.45 -11.65 -16.80 -18.95 -22.65 -18.85 -14.95 -44 -25.40 -70.20 -29 -6.65 -0.95 -20.10 -0.80 -26.10 0.20 -14.10 2.45 -24.25 8.10 -29.50 16.40 -1.45 2.30 -2.90 7.30 -2.90 10.10 0 5.85 3.60 14.65 8.85 21.60 3.55 4.65 11.30 12.30 16.65 16.35 16.75 12.70 40.65 22.55 63.50 26.25 4.55 0.70 11.60 0.85 54 1.10 26.80 0.15 49.20 0.25 49.75 0.20 0.55 -0.05 3.60 -0.25 6.75 -0.40z"/>
  <path d="M154.75 350.85 c-2.85 -1.30 -3 -2.15 -2.95 -16.65 l0.05 -13.15 -7.70 -0.15 c-7.45 -0.15 -7.80 -0.20 -8.70 -1.35 -0.70 -0.90 -0.95 -1.95 -0.95 -4.55 l0 -3.40 2.25 -1.80 c1.20 -1 6.20 -5.30 11.05 -9.55 l8.85 -7.75 2.55 0 c1.60 0 3.05 0.35 3.90 0.90 2.70 1.80 20.80 18.75 21.10 19.80 0.50 1.90 0.30 4.30 -0.45 5.80 -1.10 2.15 -3.70 2.70 -11.10 2.30 l-6.15 -0.30 0 12.50 c0 13.30 -0.20 14.70 -2.45 16.75 -1.40 1.25 -7.05 1.60 -9.30 0.60z"/>
  <path d="M241.60 340.85 c-0.60 -0.30 -5.25 -5.30 -10.35 -11.10 l-9.25 -10.50 0 -2.75 c0 -1.80 0.30 -3.20 0.90 -4.05 0.45 -0.70 4.90 -5.70 9.80 -11.10 l8.95 -9.85 3.40 0 c3.05 0 3.50 0.15 4.40 1.30 0.95 1.20 1.05 2 1.05 8.75 l0 7.45 12.40 0.05 c13.80 0 15.20 0.25 16.95 2.90 2 2.95 1.30 8.70 -1.30 10.55 -1.40 0.95 -2.15 1 -14.75 1 l-13.30 0 0 6.75 c0 7.65 -0.60 9.95 -2.75 10.75 -1.80 0.70 -4.75 0.60 -6.15 -0.15z"/>
  <path d="M161.20 255.65 c-0.60 -0.10 -1.50 -0.65 -2 -1.25 -0.80 -0.85 -0.95 -2.05 -1.10 -8.65 l-0.15 -7.70 -13.15 0.10 c-11.90 0.05 -13.30 0 -14.50 -0.85 -3.95 -2.55 -3.65 -11.10 0.50 -13.05 1.30 -0.60 3.95 -0.75 14.40 -0.75 l12.80 0 0 -7.65 c0 -7.40 0.05 -7.70 1.15 -8.75 0.95 -0.90 1.75 -1.10 4.30 -1.10 3.70 0 2.50 -0.95 13.80 11.45 9.30 10.30 9.25 10.20 9.25 13.40 l0 2.65 -7.10 8.10 c-3.95 4.50 -8.50 9.55 -10.15 11.30 -3.15 3.25 -4.05 3.55 -8.05 2.75z"/>
  <path d="M242.90 254.65 c-0.90 -0.80 -6 -5.20 -11.25 -9.80 l-9.65 -8.45 0 -3.15 c0 -2.35 0.25 -3.45 0.95 -4.30 0.90 -1.15 1.25 -1.20 8.85 -1.35 l7.85 -0.15 -0.25 -12.30 c-0.15 -6.75 -0.10 -13 0.15 -13.90 0.25 -0.85 1.05 -2.10 1.75 -2.80 1.15 -1.05 1.75 -1.20 5.25 -1.20 3.80 0 4 0.05 5.55 1.65 l1.65 1.60 0.15 13.20 0.15 13.15 3.05 0.35 c1.65 0.15 5.15 0.30 7.75 0.30 4.30 0 4.80 0.10 5.90 1.25 1.70 1.65 1.75 5.40 0.15 7.65 -1.30 1.85 -19.15 18.15 -20.75 19 -2.05 1.10 -5.40 0.75 -7.25 -0.75z"/>
  <path d="M189 129.70 c-0.40 -0.05 -3.10 -0.50 -5.90 -0.95 -6.40 -1 -12.85 -2.65 -19.65 -5.05 -6.60 -2.30 -15.05 -5.90 -17.95 -7.60 -3.05 -1.85 -3.85 -2.35 -6.80 -4.05 -5.70 -3.30 -13.95 -10.50 -18.15 -15.80 -3.20 -4.05 -4.15 -6.25 -3.95 -9.15 0.15 -2.30 0.20 -2.35 2.90 -3.70 4.95 -2.50 9.55 -3.15 21.50 -3.15 11.55 0 15.30 0.50 26.55 3.25 23.55 5.85 45.70 19.10 54.80 32.80 1.55 2.30 1.90 3.35 2.05 5.95 l0.20 3.10 -2.75 1.35 c-4.90 2.45 -10.85 3.30 -22.10 3.25 -5.50 -0.05 -10.35 -0.15 -10.75 -0.25z"/>
  <path d="M280.75 129.65 c-4.70 -0.75 -8.60 -1.75 -11.25 -2.95 l-3 -1.35 0 -2.45 c0 -4.10 3.30 -9.25 9.85 -15.45 11.75 -11.10 30.40 -20.35 50.15 -24.90 16.15 -3.75 36.90 -3.40 45.35 0.75 l2.65 1.25 0 2.70 c0 3.05 -0.80 4.75 -4.55 9.50 -9.35 11.95 -28.80 23.40 -49.45 29.05 -11.15 3.05 -16.15 3.80 -27.75 3.95 -5.75 0.10 -11.15 0.05 -12 -0.10z"/>
 </g>
 <g fill="#72c5a0">
  <path d="M95.80 426.75 c-2.85 -1 -4.35 -2.25 -5.65 -4.75 l-1.15 -2.15 0 -62.40 c0 -42.85 0.15 -62.85 0.55 -63.80 0.70 -1.90 2.80 -4.05 5.05 -5.20 1.80 -0.90 3.50 -0.95 44.50 -0.95 26.45 0 43.30 0.20 44.35 0.50 1.95 0.55 4.75 3.05 5.80 5.20 0.65 1.25 0.75 10.30 0.70 64.25 l-0.05 62.80 -1.05 2 c-0.65 1.20 -2.05 2.55 -3.55 3.50 l-2.45 1.50 -42.55 0.10 c-35.70 0.10 -42.85 0 -44.50 -0.60z m66.80 -78.10 c2.20 -1.90 2.40 -3.40 2.40 -16.65 l0 -12.50 7.15 0.05 c3.90 0.05 7.60 -0.05 8.25 -0.25 1.45 -0.45 2.70 -2.95 2.30 -4.50 -0.15 -0.70 -4.35 -4.90 -10.05 -10.10 -10.50 -9.65 -11.85 -10.70 -13.45 -10.70 -0.65 0 -4.45 2.95 -9.90 7.75 -4.85 4.25 -9.85 8.55 -11.05 9.55 -1.95 1.55 -2.25 2.10 -2.25 3.70 0 1.10 0.40 2.35 0.95 3.05 0.90 1.15 1.25 1.20 8.80 1.35 l7.80 0.15 -0.15 13.15 c-0.15 14.50 0 15.35 2.85 16.65 1.90 0.85 5 0.50 6.35 -0.70z"/>
  <path d="M225.60 427 c-2.25 -0.55 -5.05 -2.85 -6.30 -5.30 -1.05 -1.95 -1.05 -2.20 -1.05 -64.70 l0 -62.75 1.50 -2.20 c0.85 -1.30 2.40 -2.70 3.70 -3.40 l2.20 -1.15 85.70 0 c83.25 0 85.75 0.05 87.55 0.95 1.95 1 3.35 2.35 4.75 4.65 0.80 1.25 0.85 6.15 0.85 64.15 l0 62.80 -1.30 2.25 c-0.80 1.40 -2.20 2.75 -3.65 3.60 l-2.30 1.35 -85 0.10 c-46.75 0 -85.75 -0.10 -86.65 -0.35z m20.65 -87.50 c2.15 -0.80 2.75 -3.10 2.75 -10.75 l0 -6.75 13.30 0 c12.60 0 13.35 -0.05 14.75 -1.05 2 -1.40 2.80 -4.55 1.75 -6.75 -1.55 -3.35 -2.05 -3.45 -16.65 -3.60 l-13.15 -0.15 0 -7.40 c0 -6.75 -0.10 -7.55 -1.05 -8.75 -0.80 -1 -1.45 -1.30 -2.90 -1.30 -1.80 0 -2.25 0.40 -10.85 9.85 -10 11 -10.70 11.90 -10.70 13.65 0 2.15 19.15 23.45 21.10 23.50 0.20 0 0.90 -0.20 1.65 -0.50z"/>
  <path d="M56.60 260.15 c-2.60 -1.25 -4.60 -3.65 -5.30 -6.40 -0.55 -1.95 -0.70 -9.30 -0.75 -33.45 -0.10 -34.40 -0.05 -34.65 3.05 -37.65 3.45 -3.35 -1 -3.15 66.90 -3.15 54.40 0 61.75 0.10 63.40 0.75 2.35 1 3.95 2.50 5.15 4.90 0.95 1.80 0.95 3.15 0.85 35.80 l-0.15 33.95 -1.55 1.95 c-0.80 1.05 -2.50 2.40 -3.70 3.05 l-2.20 1.10 -62.05 0 c-55.90 0 -62.15 -0.10 -63.65 -0.85z m111.15 -8.75 c7.20 -7.50 17.25 -19.45 17.25 -20.55 0 -1.50 -0.95 -2.70 -9.25 -11.90 -10.50 -11.55 -10.40 -11.45 -12.30 -11.45 -1 0 -2.10 0.40 -2.80 1.10 -1.10 1.05 -1.15 1.35 -1.15 8.75 l0 7.65 -12.80 0 c-14.65 0 -15.45 0.15 -17 3.55 -0.80 1.85 -0.80 2.25 -0.15 4.05 1.35 3.95 1.50 3.95 16.60 3.95 l13.30 -0.05 0.15 7.70 c0.20 9.10 0.40 9.65 4.65 10.25 0.25 0 1.80 -1.35 3.50 -3.05z"/>
  <path d="M224.25 260.30 c-1.95 -0.85 -3.95 -2.75 -5.10 -4.85 -0.85 -1.60 -0.90 -3.70 -1.05 -34.10 -0.10 -22.10 0.05 -33.05 0.40 -34.40 0.30 -1.10 1.35 -2.90 2.30 -3.95 3.45 -3.85 -5.45 -3.55 104.25 -3.40 l98.25 0.15 2.10 1.40 c1.15 0.75 2.70 2.30 3.45 3.50 l1.40 2.10 0.15 31.35 c0.10 20.75 0 32.30 -0.35 34.25 -0.65 3.35 -2.40 5.85 -5.35 7.50 l-1.95 1.15 -98.50 -0.05 c-80.85 0 -98.75 -0.10 -100 -0.65z m24.55 -6.45 c2.20 -1.30 20.70 -18.60 21.20 -19.90 0.35 -0.75 0.45 -1.85 0.25 -2.45 -0.65 -2.05 -2.10 -2.40 -10 -2.60 l-7.50 -0.15 -0.25 -13.35 -0.25 -13.35 -1.45 -1.50 c-2.65 -2.75 -6.70 -2.50 -9 0.55 -0.95 1.35 -1 2 -0.85 14.60 l0.10 13.25 -7.80 0.15 c-7.55 0.15 -7.90 0.20 -8.80 1.35 -0.50 0.65 -0.95 1.90 -0.95 2.80 0 1.55 0.75 2.35 9.65 10.10 14.25 12.50 13.30 11.85 15.65 10.50z"/>
  <path d="M236.50 153 c-42.35 -0.30 -49.45 -0.45 -54 -1.15 -22.85 -3.70 -46.75 -13.55 -63.50 -26.25 -5.35 -4.05 -13.10 -11.70 -16.65 -16.35 -3.40 -4.50 -6.95 -11.55 -8.10 -16 -1.55 -6.10 -0.65 -14.30 2.15 -18.70 5.25 -8.30 15.35 -13.95 29.50 -16.40 6.10 -1.05 22.30 -1.15 29.10 -0.20 26.30 3.65 51.40 14.05 70.20 29 7.30 5.85 16 16.20 18.95 22.65 0.60 1.35 1.20 2.40 1.35 2.40 0.15 0 0.95 -1.40 1.75 -3.10 3.65 -7.50 12.85 -17.80 21.95 -24.60 16.80 -12.55 39.40 -21.90 62.60 -25.90 8.75 -1.50 27.55 -1.65 34.40 -0.25 15.45 3.15 24.75 8.90 29.30 18.15 2.75 5.65 2.95 11.95 0.55 19.45 -4.30 13.50 -19.90 29.10 -39.55 39.60 -14.70 7.90 -30.90 13.45 -46.45 15.95 -4.60 0.75 -22.50 2.30 -24.05 2.10 -0.40 -0.10 -22.70 -0.25 -49.50 -0.40z m-23.55 -25.50 c2.60 -0.50 5.90 -1.55 7.40 -2.30 2.70 -1.30 2.75 -1.35 2.45 -3.10 -0.60 -3.70 -7.40 -11.85 -14.30 -17.10 -14.80 -11.25 -32.15 -18.55 -53.25 -22.30 -7 -1.30 -21.90 -1.30 -27.50 -0.05 -4.65 1 -9.45 3.20 -9.65 4.45 -0.75 4.05 12.05 17.60 22.10 23.45 2.95 1.70 3.75 2.20 6.80 4.05 2.90 1.70 11.35 5.30 17.95 7.60 6.80 2.40 13.25 4.05 19.65 5.05 2.80 0.45 5.50 0.90 5.90 0.95 0.40 0.10 4.60 0.20 9.25 0.25 6.60 0.05 9.55 -0.20 13.20 -0.95z m94.30 -0.45 c28.70 -5.35 55.35 -20.45 64.65 -36.70 1.80 -3.10 1.50 -4.10 -1.55 -5.55 -8.30 -4.10 -26.60 -4.40 -42.35 -0.75 -19.75 4.55 -38.40 13.80 -50.15 24.90 -5.40 5.10 -9.85 11.40 -9.85 13.95 0 1.70 6.25 4 14.25 5.30 3.70 0.55 19.65 -0.15 25 -1.15z"/>
 </g>
</svg>